<svg xmlns="http://www.w3.org/2000/svg" width="1200" height="630" fill="none"><g clip-path="url(#a)"><path fill="#2F5D50" d="M0 0h1200v630H0z"/><g clip-path="url(#b)"><path fill="#fff" d="M-1150-819h2619V818h-2619z"/><path fill="url(#c)" d="M-1150-819h2590.22V800.01H-1150z"/><g opacity=".1" style="mix-blend-mode:luminosity"><path fill="url(#d)" d="M0 0h2590.22v1619.01H0z" transform="translate(-1150 -819)"/><g filter="url(#e)"><path fill="#5D8CBE" d="M-1150 300.136c179.876-109.733 354.355-503.692 697.92-503.692 771.669 0 1737.61 1003.787 1737.61 1003.787v253.649h-2802.48V300.136z" style="mix-blend-mode:hard-light"/></g><g filter="url(#f)" opacity=".8"><path fill="#2F9AAE" d="M-1150-203.556c226.364 129.36 437.099 690.778 998.313 681.782 483.485-7.749 476.675-917.975 1192.587-978.601 194.26-16.451 264.68 33.135 399.32 125.923 377.71 260.297 388.53 1372.561 388.53 1372.561H-1579.9s50.36-1418.561 429.9-1201.665" style="mix-blend-mode:hard-light"/></g><g filter="url(#g)" opacity=".9"><path fill="#0031A1" d="M-1150 667.112s835.526-98.939 1010.006-416.445C34.486-66.84-311.776-318.686 30.888-567.834 473.004-889.291 1440.22 214.688 1440.22 214.688h370.55v837.392H-1150z" style="mix-blend-mode:hard-light"/></g></g></g><path fill="#fff" d="M255.387 315.081c-.637-8.013-9.659-34.08-14.186-41.029-7.109-10.897-34.094-21.94-45.442-23.536a55 55 0 0 0-7.699-.516c-12.289 0-25.152 3.853-34.986 10.704-4.415 3.063-6.312 5.949-8.512 9.286a76 76 0 0 1-2.598 3.805c-.59.806-1.211 1.612-1.817 2.434l-.877 1.144c-5.993 7.916-12.783 16.895-13.516 27.422-.351 5.111-.191 11.849-.064 17.782l.08 3.433c.127 7.4 2.295 18.556 7.954 25.698C144.833 365.701 158.86 380 178.768 380c1.115 0 2.119-.032 3.092-.097 1.036-.08 2.12-.322 3.14-.532 1.323-.29 2.295-.5 3.235-.564 5.101-.339 9.197-.081 12.816.161 9.18.613 15.811 1.048 27.511-9.64 19.27-17.572 28.292-35.837 26.825-54.247m-35.385 49.056c-7.842 6.142-11.731 5.9-18.808 5.465h-.016c-1.976-.129-4.112-.258-6.567-.306-3.506-.049-6.678.113-9.898.306-2.519.129-4.877.258-7.141.258-7.348 0-13.692-1.338-21.438-8.093-7.635-6.642-19.366-20.135-20.338-30.05-.638-6.432-1.052-19.055-.59-25.084.797-10.204 9.978-22.344 16.672-31.21l1.004-1.338c7.3-9.689 25.503-15.444 37.92-14.687 10.806.661 36.994 11.479 42.764 20.571 3.523 5.529 11.652 28.357 12.258 34.402 2.024 20.232-12.64 39.448-25.822 49.766"/><path fill="#fff" d="M190.413 358.879c10.613.033 15.804 2.453 24.995-5.253 11.824-9.918 21.707-23.925 19.918-40.268-.624-5.703-6.435-21.626-9.564-26.462-4.889-7.549-25.707-16.449-34.513-16.711-17.706-.525-31.696 10.18-40.767 24.643-6.403 10.208-6.854 34.697.276 44.512 6.766 9.313 17.08 19.769 29.192 20.471 3.463.205 7.188-.943 10.463-.932m-18.306-6.767c-7.555-3.336-18.982-16.414-20.393-24.707-1.649-9.656-1.445-21.618 3.739-29.993 8.282-13.371 20.277-22.895 36.771-21.691 7.392.54 24.266 7.954 28.721 13.957 2.722 3.672 8.384 19.019 8.913 23.617 1.377 12.013-3.202 20.727-10.861 29.269-12.072 13.451-14.892 11.245-32.041 11.255-6.356.004-8.405 1.134-14.849-1.707"/><path fill="#fff" d="M205.945 342.852c15.24-9.527 18.135-24.61 11.428-40.638-3.33-7.948-8.837-11.208-16.718-14.38-12.406-4.996-27.827 1.03-35.653 11.532-10.306 13.841-4.333 36.31 10.516 44.37 6.596 3.584 24.008 3.123 30.427-.884m-31.482-5.055c-5.494-4.712-9.289-10.29-9.837-17.707-2.701-36.398 48.796-40.724 52.235-4.389.942 9.942-8.387 23.344-18.018 25.428-7.198 1.559-18.565 1.655-24.38-3.332"/><path fill="#fff" d="M206.627 316.819c.085-8.943-7.014-16.263-15.857-16.349s-16.079 7.095-16.164 16.038 7.014 16.263 15.857 16.349 16.079-7.094 16.164-16.038m-28.315 3.668c-3.907-14.352 13.221-22.621 22.634-11.715 2.342 2.716 3.202 8.21 2.531 11.677-.414 2.129-3.76 5.333-5.57 6.475-7.457 4.707-17.119 2.642-19.595-6.437m125.123 7.252q0 6.248 1.226 9.432 1.226 3.063 5.026 4.165 3.924.98 11.647 1.225v4.9h-48.793v-4.9q5.517-.245 8.214-1.225 2.82-1.102 3.678-4.042.981-2.94.981-8.697v-56.592q0-5.758-.859-8.575-.857-2.94-3.31-4.042t-7.355-1.348v-4.899h75.028l1.471 25.846h-5.149q-.981-6.983-3.31-11.147-2.206-4.165-6.865-6.002Q330.529 260 322.56 260h-16.918q-2.207 0-2.207 2.083v35.4q9.93 0 15.202-1.225 5.271-1.224 7.478-4.654t2.82-10.045h4.536V319.9h-4.536q-.736-5.145-2.207-8.207-1.349-3.186-4.046-4.778-2.696-1.715-7.355-2.327t-11.892-.612zm83.655-46.425q7.356 0 13.853 2.45t11.524 6.982q5.026 4.41 7.847 10.535 2.942 6.002 2.942 13.229 0 7.471-2.942 13.719a33.5 33.5 0 0 1-7.847 10.902q-5.027 4.532-11.524 7.105-6.498 2.45-13.853 2.45-7.233 0-13.73-2.45-6.377-2.573-11.402-7.105-4.905-4.655-7.723-10.902-2.82-6.248-2.82-13.719 0-9.677 4.904-17.149t12.995-11.759q8.09-4.288 17.776-4.288m0 7.105q-7.478 0-12.014 7.227-4.413 7.227-4.414 18.986 0 12.127 4.414 19.354 4.536 7.228 12.014 7.228 7.723 0 12.26-7.228 4.658-7.349 4.658-19.354 0-7.839-2.084-13.719t-5.884-9.187q-3.802-3.307-8.95-3.307m71.124 34.176v5.879q0 6.248.858 9.31.86 2.94 3.678 3.797 2.82.858 8.459.98v4.9h-40.947v-4.9q5.027-.368 7.233-1.347 2.331-.98 2.943-3.92.735-2.94.735-9.065v-14.944q0-7.594-.49-12.127-.367-4.654-1.594-6.982-1.102-2.45-3.433-3.185-2.206-.857-5.884-.857v-4.288l24.519-4.532 1.961 14.087h.491q3.311-6.492 8.704-10.289 5.395-3.798 11.401-3.798 4.66 0 7.601 2.328 2.943 2.327 2.943 5.879 0 3.92-2.33 6.615-2.207 2.695-6.129 2.695-2.451 0-4.291-1.225a54 54 0 0 1-3.188-2.45q-1.471-1.225-3.187-1.225-2.33 0-4.414 3.062-2.083 3.063-3.432 8.207-.98 3.675-1.594 8.33a68 68 0 0 0-.613 9.065m85.21-7.228v-12.739q0-6.615-.613-9.677-.614-3.062-2.82-4.042t-7.233-1.47v-4.9h27.706v37.116q0 7.472.123 11.759.246 4.165.736 6.247.613 3.062 2.452 4.043 1.961.857 7.968.857v4.777l-24.396 1.47-1.349-10.902h-.49q-3.064 5.023-8.95 7.962-5.762 2.818-12.872 2.818-13.117 0-19.983-9.31-5.272-7.104-5.272-20.211v-16.537q0-5.022-.245-7.839-.246-2.94-1.348-4.288-.981-1.47-3.065-2.082t-5.762-.98v-4.9h27.461v34.666q0 12.25 3.065 17.884t9.808 5.635q7.355 0 11.156-6.615 3.923-6.37 3.923-18.742m60.315-4.287v16.169q0 6.737.613 9.922t2.819 4.165q2.207.857 7.111 1.225v4.9h-38.74v-4.9q4.904-.368 7.233-1.347 2.328-.98 3.065-3.92.735-2.94.735-9.065V313.04q0-6.982-.245-11.637-.122-4.778-.613-6.369-.736-3.186-2.697-4.043-1.838-.857-7.724-.857v-4.165l23.661-4.655 1.472 10.657h.735q5.15-5.757 10.421-8.207t12.014-2.45q8.091 0 13.363 2.818t7.969 8.084h.49a30.5 30.5 0 0 1 10.543-7.962q6.252-2.94 13.118-2.94 14.957 0 21.331 7.105 2.452 2.694 3.556 7.349 1.226 4.656 1.226 12.617v18.864q0 6.737.613 9.922.735 3.063 2.942 4.043 2.329.98 7.11 1.347v4.9h-38.74v-4.9q4.904-.245 7.233-1.225 2.33-.98 2.943-3.92.735-3.061.735-9.187v-16.046q0-12.74-3.065-17.762-3.064-5.145-10.665-5.145-4.291 0-7.111 2.083-2.697 2.082-4.536 5.389-3.187 5.758-3.187 14.332v16.169q0 6.737.613 9.922.613 3.063 2.819 4.043 2.33.98 7.356 1.347v4.9h-38.863v-4.9q4.904-.368 7.233-1.347 2.33-.98 2.943-3.92.735-2.94.735-9.065v-16.046q0-8.575-1.348-13.597-1.35-5.023-4.414-7.105-3.064-2.205-8.459-2.205-4.046 0-6.743 1.96-2.574 1.96-4.29 5.267-3.31 6.248-3.31 14.577m111.248 36.381-1.839-31.236h4.781q1.717 11.514 9.318 18.251 7.723 6.738 18.757 6.738 9.194 0 14.834-4.165 5.639-4.288 5.639-11.025 0-3.92-1.839-6.614-1.716-2.696-6.743-5.267-4.903-2.695-14.466-6.248-14.221-5.39-21.209-12.739-6.865-7.472-6.865-17.272 0-7.716 3.8-13.474 3.924-5.88 10.666-9.187 6.866-3.307 15.815-3.307 12.136 0 22.68 7.839l2.207-6.124h2.942l1.348 26.458h-4.781q-2.942-10.044-9.194-15.311-6.253-5.39-14.467-5.39-7.478 0-12.259 3.797-4.782 3.675-4.781 9.555 0 3.43 1.593 6.002 1.717 2.45 6.253 4.9 4.535 2.327 12.995 5.512 17.163 6.492 24.641 13.964 7.479 7.35 7.479 17.517 0 8.207-4.659 14.576-4.66 6.37-12.872 9.922-8.214 3.553-19.003 3.553-7.233 0-13.24-1.96-6.006-2.084-12.137-6.615l-2.452 7.35zm73.098 30.623v-5.145q4.413-.122 6.742-1.347 2.33-1.103 3.065-4.165.858-3.062.858-8.942v-45.567q0-5.635-.245-10.78-.246-5.145-.613-7.104-.49-2.818-2.697-3.92-2.207-1.103-7.356-1.103v-4.777l24.642-3.43v8.697h.49q8.092-9.187 21.087-9.187 9.562 0 16.795 4.41 7.356 4.287 11.524 11.882c4.168 7.595 4.169 10.861 4.169 17.394q0 9.677-4.169 17.394-4.169 7.595-11.401 12.004-7.233 4.288-16.673 4.288-11.893 0-18.144-8.085h-.49v17.027q0 6.491.98 9.677 1.104 3.185 4.168 4.287 3.187 1.103 9.563 1.347v5.145zm45.237-37.483q14.712 0 14.712-25.356 0-26.949-14.712-26.949a17 17 0 0 0-7.478 1.715q-3.557 1.715-5.639 4.533-1.963 2.694-3.188 6.982-1.103 4.287-1.103 9.187v8.329q0 8.697 4.291 14.822 4.658 6.737 13.117 6.737m61.697-27.193 17.164-7.35v-5.145q0-13.596-10.176-13.597-3.554 0-5.394 1.838-1.838 1.714-3.555 6.369-.98 2.818-3.065 4.655-2.083 1.838-5.517 1.838-3.431 0-5.394-1.96-1.839-2.083-1.839-5.512 0-6.248 6.498-9.677 6.498-3.553 19.125-3.553 13.975 0 19.86 4.9t5.885 16.659v26.826q0 5.39.98 7.962 1.104 2.45 3.433 2.45 2.085 0 4.046-1.592l1.839 3.552q-1.594 2.94-5.272 4.777t-8.091 1.838q-5.64 0-8.705-3.308-2.942-3.43-2.942-9.799h-.613q-3.31 6.125-9.072 9.554-5.76 3.43-12.627 3.43-5.639 0-9.563-2.082-3.922-2.205-5.884-5.635-1.961-3.429-1.962-7.35 0-6.002 4.904-10.656 5.027-4.777 15.937-9.432m17.164 10.779V312.55q-7.723 3.675-12.26 6.492-4.535 2.818-6.497 5.39t-1.962 5.512q.001 3.308 2.084 5.267 2.085 1.96 5.64 1.96 3.433 0 6.375-1.715 2.942-1.714 4.781-4.654a12.6 12.6 0 0 0 1.839-6.615m88.537 8.452 3.19 4.655c-3.02 3.593-6.865 6.411-11.523 8.452q-6.988 2.94-15.202 2.94-9.93 0-17.408-4.165-7.478-4.288-11.647-11.759-4.168-7.596-4.168-17.395 0-10.289 4.413-17.884 4.537-7.716 12.505-11.881 7.97-4.288 18.634-4.288 7.235 0 12.995 1.96 5.763 1.838 9.071 5.145c2.21 2.205 3.31 4.736 3.31 7.594 0 2.124-.65 3.92-1.96 5.39q-1.963 2.082-5.639 2.083-3.432 0-5.395-1.715-1.838-1.837-3.677-4.533-2.207-3.306-3.678-5.144-1.349-1.96-2.697-2.818-1.348-.857-3.801-.857-7.232 0-11.278 6.492-3.923 6.492-3.924 18.497 0 12.984 4.659 20.088 4.782 7.105 13.731 7.105 4.905 0 9.93-2.082 5.028-2.084 9.559-5.88m69.2-.857 3.44 4.287c-7.44 8.411-16.72 12.617-27.83 12.617-6.71 0-12.59-1.389-17.66-4.165-5.06-2.776-9.03-6.615-11.89-11.514q-4.17-7.472-4.17-17.15c0-6.778 1.47-12.739 4.42-17.884 3.02-5.226 7.19-9.309 12.5-12.249q7.965-4.41 18.27-4.41c8.66 0 15.4 2.368 20.23 7.105q7.23 6.983 7.23 19.476c0 1.307-.21 2.124-.61 2.45-.41.245-1.56.368-3.44.368h-39.47c-.33.735-.49 2.082-.49 4.042 0 7.921 1.71 14.25 5.15 18.986q5.265 6.983 14.22 6.983 5.145 0 10.17-2.328 5.16-2.327 9.93-6.614m-38.12-27.929h17.77c3.35 0 5.48-.163 6.38-.49q1.35-.612 1.35-2.695c0-3.593-1.03-6.533-3.07-8.819s-4.62-3.43-7.72-3.43c-3.52 0-6.66 1.47-9.44 4.41-2.7 2.858-4.46 6.533-5.27 11.024"/></g><defs><filter id="e" width="2952.48" height="1357.43" x="-1516.95" y="-203.556" color-interpolation-filters="sRGB" filterUnits="userSpaceOnUse"><feFlood flood-opacity="0" result="BackgroundImageFix"/><feBlend in="SourceGraphic" in2="BackgroundImageFix" result="shape"/><feColorMatrix in="SourceAlpha" result="hardAlpha" values="0 0 0 0 0 0 0 0 0 0 0 0 0 0 0 0 0 0 127 0"/><feOffset dx="150" dy="100"/><feGaussianBlur stdDeviation="125"/><feComposite in2="hardAlpha" k2="-1" k3="1" operator="arithmetic"/><feColorMatrix values="0 0 0 0 0.228166 0 0 0 0 0.71679 0 0 0 0 0.924542 0 0 0 1 0"/><feBlend in2="shape" result="effect1_innerShadow_592_96826"/><feColorMatrix in="SourceAlpha" result="hardAlpha" values="0 0 0 0 0 0 0 0 0 0 0 0 0 0 0 0 0 0 127 0"/><feOffset dx="40" dy="20"/><feGaussianBlur stdDeviation="40"/><feComposite in2="hardAlpha" k2="-1" k3="1" operator="arithmetic"/><feColorMatrix values="0 0 0 0 0.686275 0 0 0 0 0.827451 0 0 0 0 0.87451 0 0 0 1 0"/><feBlend in2="effect1_innerShadow_592_96826" result="effect2_innerShadow_592_96826"/></filter><filter id="f" width="3528.66" height="1601.6" x="-1599.9" y="-503.494" color-interpolation-filters="sRGB" filterUnits="userSpaceOnUse"><feFlood flood-opacity="0" result="BackgroundImageFix"/><feBlend in="SourceGraphic" in2="BackgroundImageFix" result="shape"/><feColorMatrix in="SourceAlpha" result="hardAlpha" values="0 0 0 0 0 0 0 0 0 0 0 0 0 0 0 0 0 0 127 0"/><feOffset dx="100" dy="100"/><feGaussianBlur stdDeviation="125"/><feComposite in2="hardAlpha" k2="-1" k3="1" operator="arithmetic"/><feColorMatrix values="0 0 0 0 0.00784314 0 0 0 0 0.6 0 0 0 0 0.788235 0 0 0 1 0"/><feBlend in2="shape" result="effect1_innerShadow_592_96826"/><feColorMatrix in="SourceAlpha" result="hardAlpha" values="0 0 0 0 0 0 0 0 0 0 0 0 0 0 0 0 0 0 127 0"/><feOffset dx="-20" dy="50"/><feGaussianBlur stdDeviation="40"/><feComposite in2="hardAlpha" k2="-1" k3="1" operator="arithmetic"/><feColorMatrix values="0 0 0 0 0.0352941 0 0 0 0 0.780392 0 0 0 0 0.94902 0 0 0 1 0"/><feBlend in2="effect1_innerShadow_592_96826" result="effect2_innerShadow_592_96826"/><feColorMatrix in="SourceAlpha" result="hardAlpha" values="0 0 0 0 0 0 0 0 0 0 0 0 0 0 0 0 0 0 127 0"/><feOffset dx="-20" dy="20"/><feGaussianBlur stdDeviation="1"/><feComposite in2="hardAlpha" k2="-1" k3="1" operator="arithmetic"/><feColorMatrix values="0 0 0 0 1 0 0 0 0 1 0 0 0 0 1 0 0 0 0.2 0"/><feBlend in2="effect2_innerShadow_592_96826" result="effect3_innerShadow_592_96826"/></filter><filter id="g" width="3060.77" height="1778.59" x="-1150" y="-626.518" color-interpolation-filters="sRGB" filterUnits="userSpaceOnUse"><feFlood flood-opacity="0" result="BackgroundImageFix"/><feBlend in="SourceGraphic" in2="BackgroundImageFix" result="shape"/><feColorMatrix in="SourceAlpha" result="hardAlpha" values="0 0 0 0 0 0 0 0 0 0 0 0 0 0 0 0 0 0 127 0"/><feOffset dx="100" dy="100"/><feGaussianBlur stdDeviation="125"/><feComposite in2="hardAlpha" k2="-1" k3="1" operator="arithmetic"/><feColorMatrix values="0 0 0 0 0 0 0 0 0 0.560784 0 0 0 0 0.835294 0 0 0 1 0"/><feBlend in2="shape" result="effect1_innerShadow_592_96826"/><feColorMatrix in="SourceAlpha" result="hardAlpha" values="0 0 0 0 0 0 0 0 0 0 0 0 0 0 0 0 0 0 127 0"/><feOffset dx="10" dy="60"/><feGaussianBlur stdDeviation="40"/><feComposite in2="hardAlpha" k2="-1" k3="1" operator="arithmetic"/><feColorMatrix values="0 0 0 0 0.533636 0 0 0 0 0.881141 0 0 0 0 0.866032 0 0 0 1 0"/><feBlend in2="effect1_innerShadow_592_96826" result="effect2_innerShadow_592_96826"/></filter><radialGradient id="c" cx="0" cy="0" r="1" gradientTransform="matrix(0 1400.31 -1782.84 0 145.11 -819)" gradientUnits="userSpaceOnUse"><stop stop-color="#E8EEE0"/><stop offset="1" stop-color="#2F5D50"/></radialGradient><radialGradient id="d" cx="0" cy="0" r="1" gradientTransform="matrix(665.543 1777.31 -2850.05 1067.41 1460.6 0)" gradientUnits="userSpaceOnUse"><stop stop-color="#002436"/><stop offset="1" stop-color="#044DE4"/></radialGradient><clipPath id="a"><path fill="#fff" d="M0 0h1200v630H0z"/></clipPath><clipPath id="b"><path fill="#fff" d="M-1150-819h2619V818h-2619z"/></clipPath></defs></svg>