<svg width="184" height="43" viewBox="0 0 184 43" fill="none" xmlns="http://www.w3.org/2000/svg">
<path d="M50.478 6.63045C51.3044 6.63045 52.0105 6.34233 52.5886 5.77763C53.1667 5.20909 53.4616 4.51762 53.4616 3.70706C53.4616 2.8965 53.1667 2.20503 52.5886 1.63648C52.0105 1.06794 51.3044 0.783668 50.478 0.783668C49.6516 0.783668 48.9416 1.07178 48.3441 1.63648C47.7466 2.20503 47.4479 2.8965 47.4479 3.70706C47.4479 4.51762 47.7466 5.20909 48.3441 5.77763C48.9416 6.34618 49.6516 6.63045 50.478 6.63045ZM52.8641 10.3221H48.0454V33.3059H52.8641V10.3221ZM62.1029 13.7372V0.0192073H57.2842V33.3021H62.1029V29.8831C64.1863 32.4646 66.9681 33.7515 70.4599 33.7515C73.7384 33.7515 76.4814 32.6106 78.7006 30.3326C80.9199 28.0546 82.0295 25.2234 82.0295 21.8313C82.0295 18.4392 80.9237 15.6004 78.7006 13.307C76.4814 11.0136 73.7384 9.865 70.4599 9.865C66.972 9.865 64.1863 11.1519 62.1029 13.7334M64.2368 27.2325C62.8129 25.7919 62.1029 23.9941 62.1029 21.8351C62.1029 19.6762 62.8129 17.8323 64.2368 16.3917C65.6606 14.9512 67.4453 14.2328 69.587 14.2328C71.7286 14.2328 73.4668 14.9512 74.8907 16.3917C76.3146 17.8323 77.0246 19.6455 77.0246 21.8351C77.0246 24.0248 76.3146 25.7919 74.8907 27.2325C73.4668 28.673 71.7015 29.3914 69.587 29.3914C67.4725 29.3914 65.6606 28.673 64.2368 27.2325ZM93.4303 10.3221H88.1964L97.7912 33.3059H103.207L112.802 10.3221H107.937L100.682 28.673L93.4264 10.3221H93.4303ZM124.613 33.7554C128.132 33.7554 131.085 32.6144 133.475 30.3364C135.861 28.0584 137.056 25.2272 137.056 21.8351C137.056 18.4431 135.861 15.6042 133.475 13.3108C131.089 11.0175 128.132 9.86884 124.613 9.86884C121.094 9.86884 118.138 11.0175 115.752 13.3108C113.366 15.6042 112.171 18.4431 112.171 21.8351C112.171 25.2272 113.366 28.0584 115.752 30.3364C118.138 32.6144 121.094 33.7554 124.613 33.7554ZM124.613 14.2328C126.755 14.2328 128.54 14.9512 129.963 16.3917C131.387 17.8323 132.097 19.6455 132.097 21.8351C132.097 24.0248 131.387 25.7919 129.963 27.2325C128.54 28.673 126.755 29.3914 124.613 29.3914C122.472 29.3914 120.73 28.673 119.286 27.2325C117.847 25.7919 117.129 23.9941 117.129 21.8351C117.129 19.6762 117.847 17.8707 119.286 16.4148C120.726 14.9588 122.499 14.2328 124.613 14.2328ZM150.973 9.86884C147.695 9.86884 144.952 10.9944 142.733 13.2417C140.514 15.489 139.404 18.2625 139.404 21.5624C139.404 24.8623 140.51 27.6742 142.733 29.9062C144.952 32.1381 147.695 33.256 150.973 33.256C154.461 33.256 157.247 31.9959 159.331 29.4798V30.8281C159.331 32.987 158.597 34.7926 157.127 36.2485C155.656 37.7044 153.848 38.4305 151.711 38.4305C150.213 38.4305 148.886 38.0502 147.738 37.2819C146.589 36.5174 145.693 35.4763 145.053 34.1549L140.692 36.2677C141.674 38.2461 143.132 39.8211 145.076 40.9889C147.02 42.1567 149.231 42.7445 151.711 42.7445C155.23 42.7445 158.182 41.6036 160.572 39.3255C162.958 37.0475 164.153 34.2163 164.153 30.8243V10.3145H159.334V13.6873C157.286 11.1404 154.496 9.865 150.977 9.865M146.523 26.8253C145.084 25.4154 144.366 23.6599 144.366 21.5624C144.366 19.4649 145.084 17.717 146.523 16.3226C147.963 14.9281 149.736 14.2328 151.85 14.2328C153.965 14.2328 155.777 14.9281 157.201 16.3226C158.624 17.717 159.334 19.4649 159.334 21.5624C159.334 23.6599 158.624 25.4154 157.201 26.8253C155.777 28.2351 153.992 28.9381 151.85 28.9381C149.709 28.9381 147.967 28.2351 146.523 26.8253ZM171.735 24.893C171.735 27.7434 172.453 29.8562 173.892 31.2353C175.332 32.6144 177.567 33.3059 180.597 33.3059H183.169V29.1225H180.597C179.192 29.1225 178.164 28.8075 177.52 28.1775C176.876 27.5475 176.558 26.5295 176.558 25.1196V14.5055H183.169V10.3221H176.558V1.37142L171.739 2.85424V10.3221H166.734V14.5055H171.739V24.8968L171.735 24.893Z" fill="#05002D"/>
<path d="M17.9479 17.4866C8.34156 17.4866 3.06116 23.6522 1.00099 26.7907C0.341421 27.7972 0.00387907 28.965 0.00387907 30.1635C0.00387907 31.9191 1.46656 33.3558 3.26291 33.3558H30.8288C32.6174 33.3558 34.0879 31.9229 34.0879 30.1635V12.9805C34.0879 12.1699 33.114 11.732 32.4933 12.2736C29.4399 14.9512 24.7531 17.4789 17.9479 17.4789M17.9479 14.1137C10.425 14.1137 5.20668 17.2561 1.83514 20.4676C1.14842 21.1245 0 20.6404 0 19.7031V3.47273C0 1.55965 1.59072 0.00384151 3.54225 0H30.5534C32.5049 0 34.0956 1.56349 34.0956 3.46888C34.0956 4.4792 33.8085 5.47031 33.2459 6.31544C31.4845 8.96993 26.9064 14.1175 17.9518 14.1175" fill="#0087B4"/>
</svg>
