<svg id="Layer_1" xmlns="http://www.w3.org/2000/svg" viewBox="0 0 228.8 42.7"><style>.st0{fill:#81848A;} .st1{fill:#EF3829;}</style><path class="st0" d="M35.3 33.8s-7.3 3.3-16.8-2.1-9.1 4.2-7.2 6.6C13.6 41 16.9 43.1 23 42c6.1-1.1 12.3-8.2 12.3-8.2z"/><path class="st1" d="M109.4 23.3l-5.9-10.9h5l3.5 7.5 3.7-7.5h4.9l-5.9 10.9 6.1 11.7h-4.9l-4-8.4-4 8.4h-4.8l6.3-11.7zM7 8.5s7.3-3.3 16.8 2.1S32.9 6.4 31 4C28.8 1.2 25.4-.9 19.3.3 13.2 1.4 7 8.5 7 8.5zM33.5 7s3.3 7.3-2.1 16.8 4.2 9.1 6.6 7.2c2.8-2.2 4.9-5.6 3.7-11.7C40.6 13.2 33.5 7 33.5 7z"/><path d="M50.4 4.9h4.8V35h-4.8V4.9zM58.2 12.3h4.3V15h.1c1.1-2 3.3-3.2 5.8-3.2 3.5 0 5.6 1.6 5.6 6.1V35h-4.5V19.5c0-2.9-.9-4.1-3.2-4.1-1.9 0-3.6 1.5-3.6 4.4V35h-4.5V12.3zM78.4 15.7h-3.2v-3.4h3.2v-2.1c0-4.3 2.1-5.6 5.8-5.6 1 0 1.8 0 2.5.1v3.5h-1.3c-1.7 0-2.4.6-2.4 2.1v2h3.7v3.4H83V35h-4.5V15.7zM94.7 11.8c6.6 0 8.5 4.9 8.5 11.9s-2.1 11.9-8.5 11.9c-6.3 0-8.4-4.9-8.4-11.9s1.9-11.9 8.4-11.9zm0 20.4c3.3 0 3.9-2.8 3.9-8.5 0-5-.6-8.5-3.9-8.5s-3.9 3.5-3.9 8.5c.1 5.7.7 8.5 3.9 8.5zM137 26.7c-.3 5.4-2.1 8.8-7.7 8.8-6.6 0-8.4-4.9-8.4-11.9s1.9-11.9 8.4-11.9c6.8-.1 7.8 5.3 7.8 8.1h-4.5c0-2.1-.6-4.8-3.2-4.8-3.3 0-3.9 3.5-3.9 8.5s.6 8.5 3.9 8.5c2.5 0 3.5-2.1 3.5-5.5h4.1zM138.7 4.9h4.5v9.9l.1.1c1.3-1.9 3.2-3.1 5.6-3.1 3.5 0 5.6 1.6 5.6 6.1V35H150V19.5c0-2.9-.9-4.1-3.2-4.1-1.9 0-3.6 1.5-3.6 4.4V35h-4.5V4.9zM172.3 30.3c0 .8.5 1.6 1.2 1.6.3 0 .6 0 .8-.1v2.9c-.5.3-1.3.5-2.2.5-2 0-3.7-.8-3.8-3h-.1c-1.2 2.2-3 3.3-5.6 3.3-3.6 0-5.9-2-5.9-6.4 0-5.1 2.2-6.1 5.3-7.1l3.5-1c1.6-.5 2.7-.9 2.7-2.9 0-2.1-.7-3.4-3.1-3.4-3 0-3.5 2.1-3.5 4.3h-4.3c0-4.8 2-7.5 8-7.5 4 0 7.2 1.6 7.2 5.6v13.2zM168 23c-1.2.9-3.7 1.5-5.1 2.1-1.3.6-1.9 2-1.9 3.7 0 1.9.9 3.4 2.8 3.4 2.7 0 4.1-2.1 4.1-5.4V23zM175.5 12.3h4.3V15h.1c1.1-2 3.3-3.2 5.8-3.2 3.5 0 5.6 1.6 5.6 6.1V35h-4.5V19.5c0-2.9-.9-4.1-3.2-4.1-1.9 0-3.6 1.5-3.6 4.4V35h-4.5V12.3zM198.8 36.9c0 1.4 1.3 2.7 3.3 2.7 2.4 0 3.8-1.6 3.8-4.3v-3.7h-.1c-.8 2-2.9 3.1-5.1 3.1-5.3 0-6.8-5.2-6.8-11.4 0-5 .8-11.7 7.2-11.7 2.7 0 4.5 1.7 5 3.4h.1v-2.8h4.3v21.6c0 5.5-2.4 8.8-8.5 8.8-6.7 0-7.5-4-7.5-5.8h4.3zm3.2-5.7c3.5 0 3.9-4.5 3.9-8 0-3.7-.5-7.8-3.6-7.8-3.3 0-3.8 3.4-3.8 7.6 0 3.8.1 8.2 3.5 8.2zM216.9 24.3v1.3c0 3 .4 6.9 3.8 6.9 3.2 0 3.6-3.7 3.6-5.1h4.3c0 5-3 8.2-8 8.2-3.7 0-8.3-1.1-8.3-11.6 0-5.9 1.3-12.3 8.4-12.3 6.3 0 8 3.8 8 10.1v2.4h-11.8zm7.3-3.2v-1.2c0-2.9-.9-5.1-3.5-5.1-2.9 0-3.8 2.9-3.8 5.8v.5h7.3zM8.5 34.8S5.2 27.5 10.6 18 6.4 8.9 4 10.8C1.3 13-.8 16.4.3 22.5c1.1 6.1 8.2 12.3 8.2 12.3z"/></svg>